<?xml version="1.0" encoding="UTF-8" standalone="no"?>
<!-- Created with Inkscape (http://www.inkscape.org/) -->

<svg
   xmlns:dc="http://purl.org/dc/elements/1.1/"
   xmlns:cc="http://creativecommons.org/ns#"
   xmlns:rdf="http://www.w3.org/1999/02/22-rdf-syntax-ns#"
   xmlns:svg="http://www.w3.org/2000/svg"
   xmlns="http://www.w3.org/2000/svg"
   xmlns:sodipodi="http://sodipodi.sourceforge.net/DTD/sodipodi-0.dtd"
   xmlns:inkscape="http://www.inkscape.org/namespaces/inkscape"
   width="512"
   height="512"
   viewBox="0 0 512.00001 512.00001"
   id="svg2"
   version="1.1"
   inkscape:version="0.91 r13725"
   sodipodi:docname="hello.svg">
  <defs
     id="defs4">
    <inkscape:path-effect
       effect="rough_hatches"
       id="path-effect4175"
       is_visible="true"
       direction="272,828.36216 , -31.27922,-47.47717"
       dist_rdm="99;1879702494"
       growth="0"
       do_bend="true"
       bender="256,796.36216 , 5.0000001,-33.335034"
       bottom_edge_variation="38.4;1"
       top_edge_variation="38.4;1"
       bottom_tgt_variation="20;1"
       top_tgt_variation="20;1"
       scale_bf="1"
       scale_bb="-0.6"
       scale_tf="0.7"
       scale_tb="1"
       top_smth_variation="0;1"
       bottom_smth_variation="0;1"
       fat_output="true"
       stroke_width_top="1"
       stroke_width_bottom="1"
       front_thickness="1"
       back_thickness="0.25" />
    <inkscape:path-effect
       effect="spiro"
       id="path-effect4173"
       is_visible="true" />
    <inkscape:path-effect
       tgtlength_rdm="1;1"
       tgtlength="100"
       tgtscale="10"
       tgt_places_rdmness="0.6;1"
       nbtangents="5"
       tremble_frequency="1"
       tremble_size="5;1"
       parallel_offset="5;439506624"
       ends_tolerance="0.4;1"
       strokeoverlap_rdm="0.3;873270956"
       strokeoverlap="0.3"
       strokelength_rdm="0.3;1777422228"
       strokelength="100"
       nbiter_approxstrokes="5"
       is_visible="true"
       id="path-effect4171"
       effect="sketch" />
    <inkscape:path-effect
       effect="sketch"
       id="path-effect4146"
       is_visible="true"
       nbiter_approxstrokes="5"
       strokelength="100"
       strokelength_rdm="0.3;1777422228"
       strokeoverlap="0"
       strokeoverlap_rdm="0.3;873270956"
       ends_tolerance="0.4;1"
       parallel_offset="8;439506624"
       tremble_size="5;1"
       tremble_frequency="1"
       nbtangents="5"
       tgt_places_rdmness="0.6;1"
       tgtscale="10"
       tgtlength="100"
       tgtlength_rdm="1;1" />
  </defs>
  <sodipodi:namedview
     id="base"
     pagecolor="#ffffff"
     bordercolor="#666666"
     borderopacity="1.0"
     inkscape:pageopacity="0.0"
     inkscape:pageshadow="2"
     inkscape:zoom="0.2"
     inkscape:cx="231.60633"
     inkscape:cy="278.41043"
     inkscape:document-units="px"
     inkscape:current-layer="layer1"
     showgrid="false"
     units="px"
     inkscape:snap-bbox="true"
     inkscape:bbox-paths="false"
     inkscape:snap-bbox-edge-midpoints="false"
     inkscape:bbox-nodes="false"
     inkscape:snap-bbox-midpoints="false"
     inkscape:object-paths="false"
     inkscape:snap-intersection-paths="false"
     inkscape:object-nodes="true"
     inkscape:snap-smooth-nodes="false"
     inkscape:snap-midpoints="false"
     inkscape:snap-object-midpoints="false"
     inkscape:snap-center="false"
     inkscape:window-width="1280"
     inkscape:window-height="704"
     inkscape:window-x="0"
     inkscape:window-y="0"
     inkscape:window-maximized="1">
    <inkscape:grid
       type="xygrid"
       id="grid4136"
       color="#000000"
       opacity="0.1254902"
       dotted="true"
       empspacing="8" />
    <inkscape:grid
       type="xygrid"
       id="grid4138"
       empcolor="#ff0000"
       empopacity="0.25098039"
       empspacing="8"
       spacingx="8.0000002"
       spacingy="8.0000002" />
  </sodipodi:namedview>
  <metadata
     id="metadata7">
    <rdf:RDF>
      <cc:Work
         rdf:about="">
        <dc:format>image/svg+xml</dc:format>
        <dc:type
           rdf:resource="http://purl.org/dc/dcmitype/StillImage" />
        <dc:title></dc:title>
      </cc:Work>
    </rdf:RDF>
  </metadata>
  <g
     inkscape:label="Layer 1"
     inkscape:groupmode="layer"
     id="layer1"
     transform="translate(0,-540.36216)">
    <path
       style="fill:none;fill-rule:evenodd;stroke:#999999;stroke-width:4;stroke-linecap:butt;stroke-linejoin:miter;stroke-opacity:1;stroke-miterlimit:4;stroke-dasharray:none"
       d="m 278.91252,631.35202 c 18.40897,16.50491 34.97429,34.22505 51.43456,51.79908 m -11.79556,-7.72957 c 19.47063,19.55903 40.59828,40.17468 62.13184,60.83151 m 0.31576,-6.66494 c 19.23142,19.98911 40.87087,39.77831 62.10132,58.27251 -1.61366,1.51152 -3.23005,3.0144 -4.85071,4.50802 m -0.58499,14.38428 c -17.83591,19.97357 -37.26926,38.87554 -55.84941,58.47991 m 6.14481,-3.37823 c -19.44642,18.00456 -36.25442,36.53315 -51.88676,54.34123 m -14.11318,3.01861 c -21.49627,21.40519 -39.99638,39.41725 -57.5734,55.92604 m -5.94575,1.33504 c -4.18321,4.01911 -8.26031,8.02361 -12.24592,12.01362 -17.59216,-17.84903 -33.40182,-35.98031 -48.68609,-54.38333 m 4.76898,1.01845 c -20.82791,-21.73908 -43.99628,-41.44802 -67.99951,-59.84406 m 12.73974,-5.33736 c -19.72308,-19.961 -41.18247,-41.87131 -62.572154,-64.52643 m -3.050453,-2.48606 c -4.443727,-4.04038 -8.802034,-8.13911 -13.087475,-12.26746 17.712046,-16.77613 36.627352,-34.04134 55.903592,-49.86714 m -1.59177,11.38456 c 24.35345,-22.30404 45.68411,-45.73756 68.38698,-69.03408 M 179.4901,671.20874 c 18.52462,-16.71346 35.26575,-34.90488 52.10517,-53.53918 m 2.00005,-6.13663 c 6.65027,-6.22827 13.20965,-12.26968 19.75118,-18.10555 14.10686,14.63911 28.13072,30.2341 42.80416,46.97232 m -9.60992,-14.24593 c 17.35655,19.61682 35.41037,38.90806 52.36653,60.16463 m -6.69172,-2.2879 c 19.58772,18.67608 38.02229,38.55479 55.66176,58.12739 m 1.86127,0.86517 c 16.61992,17.70097 34.51904,34.96527 53.07425,52.84241 m 4.20113,2.63566 c 0.33247,0.333 0.6647,0.66533 0.9967,0.99701 -17.33948,18.25296 -35.38168,34.50238 -53.27327,49.62037 m 3.05774,3.43317 c -18.10364,18.79686 -35.97675,37.7225 -53.4533,57.87826 m -8.7473,-6.72466 c -23.05873,23.53374 -44.5752,45.6208 -63.982,67.13363 m -1.58559,1.69174 c -4.54255,4.62166 -9.09607,9.27597 -13.63215,13.94439 -11.62039,-12.48951 -23.12643,-24.88642 -34.04099,-37.5024 m -8.84734,10.22385 c -19.7128,-20.42294 -40.26672,-41.11275 -60.84108,-62.81437 m 4.25054,-9.38549 c -17.63324,-18.11972 -33.81726,-34.14491 -49.60316,-49.92368 m -1.28232,8.296 C 91.342925,830.25768 76.604367,814.42511 61.872329,797.44618 c 4.741762,-5.45573 9.484197,-11.02982 14.229216,-16.73638 m 5.822471,7.31399 c 21.694144,-22.60411 45.231424,-44.67351 69.044724,-67.09805 m -9.04068,-5.17842 c 19.97265,-18.01308 38.41375,-36.2955 56.87384,-52.50566 m 5.48128,-3.92851 c 17.32971,-17.85101 34.90591,-35.18343 51.91669,-52.07724 2.62414,2.88932 5.23482,5.78907 7.82906,8.69897 m 2.84714,-3.10335 c 22.55805,21.16629 44.67244,43.8633 67.55962,65.6525 m -53.46065,-40.48221 c 19.55934,21.20084 40.44802,41.13354 60.16975,61.05744 m -8.65636,-0.59128 c 21.5974,22.21727 44.23223,41.46743 67.88062,59.25935 m 4.96993,-7.14348 c 13.33139,13.12634 27.37913,27.36958 41.70426,42.0864 -7.28962,8.13447 -14.49449,16.41363 -21.68873,24.72883 m -0.041,11.29834 c -19.89335,20.76749 -38.45054,39.76228 -56.41378,59.50231 m 2.65306,-17.50733 c -17.96739,18.46093 -36.43589,36.75827 -54.89364,55.29001 m -6.12105,0.57624 c -18.09528,18.59905 -38.00232,38.06553 -58.71997,58.34635 -2.80415,-2.29528 -5.62315,-4.57564 -8.45451,-6.84121 m 5.36485,-4.65282 c -22.38079,-22.22363 -43.74452,-43.48365 -65.39243,-64.61958 m -0.927,9.13568 c -21.51652,-22.6686 -45.97826,-44.06739 -69.393,-63.40437 m 2.15015,0.20904 C 98.249136,838.48613 82.222857,821.6656 66.688099,804.8963 73.682007,798.30161 80.751932,791.71483 87.87359,785.17406 m -5.891221,-16.30297 c 20.697841,-23.47062 43.938871,-44.08871 66.289611,-65.61324 m -0.60142,9.29332 c 20.42164,-19.88053 37.50012,-39.86926 52.8703,-60.48474 m 1.60807,-0.27454 c 16.60765,-15.41188 32.41752,-31.24238 48.51657,-46.979 1.57967,1.55746 3.16212,3.11582 4.74839,4.67556 m 5.80876,-5.45823 c 22.96286,23.29259 47.41871,47.66138 73.33827,74.07881 m -71.17868,-63.47342 c 18.00981,19.591 39.18264,37.66815 61.39698,55.19003 m -6.20389,-4.71641 c 15.93301,15.61303 33.54214,33.26457 51.92097,51.58224 m -4.10919,5.25322 c 22.09553,22.43089 44.97183,44.9945 67.54755,67.48055 m 7.00145,-2.11837 c 4.05791,4.53394 8.19102,8.98244 12.37383,13.36824 -19.43118,19.20427 -37.90938,37.20651 -57.57526,55.91755 m -5.75347,-6.84507 c -19.86592,18.39896 -37.72453,37.42542 -55.77778,56.46404 m -3.1453,8.03019 c -22.25589,23.14818 -43.08128,43.45943 -62.81861,63.58935 m 5.35443,-3.09418 c -4.26734,4.28156 -8.5265,8.57744 -12.77583,12.88781 -12.91123,-12.93588 -25.73182,-25.73801 -38.41581,-38.40179 m -10.84145,5.65265 c -21.78543,-23.36619 -43.62467,-45.47696 -62.94929,-68.1095 m 6.74461,-11.59477 C 136.08377,855.68668 114.86447,836.33681 91.674878,816.66317 m 3.843189,14.39603 c -8.431541,-9.33693 -17.516589,-18.69131 -27.000812,-28.20891 11.909018,-13.2836 23.040468,-26.88516 34.085815,-41.20105 m -1.37641,-0.77992 c 17.46704,-18.88556 35.40552,-36.25702 52.92751,-53.72649 m 10.70428,-7.49812 c 18.45112,-17.51172 36.65989,-36.92252 55.22022,-57.16528 m -9.49531,4.90788 c 14.45501,-16.34646 30.2091,-30.39079 46.11705,-43.39001 5.43844,6.06005 10.89487,12.24224 16.32352,18.49635 m -12.84822,-7.97132 c 17.68199,17.90542 36.02824,35.55159 55.17787,53.42188 m 2.32948,-4.2038 c 21.70441,21.34649 42.49299,42.70537 62.59703,63.44035 m 9.19079,2.8404 c 18.83967,20.5847 40.05476,41.16049 61.15335,62.96737 -0.68616,0.79171 -1.37247,1.58503 -2.05906,2.38004 m 1.10792,4.24948 c -21.38296,19.29747 -40.03237,41.72918 -57.62052,64.22858 m -0.15785,-8.01216 c -19.63846,19.18127 -41.4683,40.42262 -65.35618,62.64188 m -13.29228,11.53062 c -19.67656,20.97799 -39.35643,40.67398 -56.71189,59.80017 m 3.08398,-10.47805 c -2.39555,2.18606 -4.77802,4.40699 -7.1512,6.66085 -22.10538,-21.07746 -43.4052,-39.29832 -66.96654,-56.23911 m 3.47857,5.79339 c -16.09436,-16.65585 -33.0596,-33.91667 -50.04229,-51.76943 m 0.77378,-17.06157 C 117.57671,843.86315 97.266437,823.49223 77.496122,802.4532 m -9.675382,2.12055 c -4.869047,-4.71882 -9.665361,-9.41771 -14.410205,-14.09995 17.350062,-17.52377 35.421051,-34.81435 53.098205,-52.04359 m 2.96551,12.21528 c 21.65936,-22.42444 46.9311,-45.47007 71.70176,-67.16274 m 4.21776,-9.43629 c 18.22284,-18.37537 38.38383,-36.03758 60.01277,-52.76078 m -5.11156,8.41384 c 4.80101,-5.12559 9.59185,-10.13482 14.36512,-15.06202 15.13166,15.17694 30.0868,31.17816 44.63025,46.90933 m 33.97266,249.55232 -49.16602,49.16602 M 118.1832,850.54536 l -8.2864,-8.2864 m -3.32447,-3.32447 -21.54466,-21.54466 M 408.46971,835.89245 290.25029,954.11187 M 164.32291,896.68507 94.717088,827.07925"
       id="path4140"
       inkscape:connector-curvature="0"
       inkscape:path-effect="#path-effect4146"
       inkscape:original-d="m 256,604.36216 192,192 -192,192 -192,-192 z"
       sodipodi:nodetypes="ccccc" />
    <path
       sodipodi:nodetypes="ccccc"
       inkscape:connector-curvature="0"
       id="path4169"
       d="m 255.96897,613.65465 c 0,0 -24.80773,21.2929 -33.85407,30.32013 -7.05466,7.03978 4.16795,0.52053 17.79289,-6.86791 13.66508,-7.41021 29.73826,-15.67261 32.66207,-12.73882 -1.91779,-1.92433 -33.18629,23.69191 -66.88236,53.16689 -34.3098,30.01182 -69.05502,62.16444 -80.64841,73.68687 -16.34162,16.24158 28.28901,-13.2646 76.89186,-44.78749 48.78303,-31.63975 101.23762,-64.98482 102.45683,-63.75249 -0.91414,-0.92398 -56.69155,36.88116 -112.25946,77.92959 -55.36421,40.89796 -110.399348,84.91993 -107.617849,87.72597 3.87449,3.90869 63.250329,-35.00511 121.314889,-71.92925 58.34137,-37.10016 115.44522,-72.27585 117.43451,-70.26989 -0.63505,-0.64038 -16.60245,8.51209 -40.1652,23.08544 -24.21734,14.97821 -54.14215,34.23909 -85.92214,55.55431 -31.71474,21.27146 -61.59019,42.11848 -85.26891,59.29265 -23.104693,16.75782 -38.198911,28.49667 -37.446846,29.24234 2.182242,2.16367 61.026926,-38.05506 118.604386,-76.27175 57.83393,-38.38692 114.47361,-74.8384 114.80578,-74.5092 -0.37864,-0.37525 -52.6943,36.51543 -105.05637,75.99922 -52.18131,39.34746 -104.340594,81.21904 -102.45051,83.1095 2.61229,2.6128 61.80741,-36.90076 120.02169,-74.09768 58.48869,-37.37227 116.02728,-72.45516 117.99325,-70.48968 -1.35516,-1.35482 -53.92045,35.85612 -106.39156,75.81265 -52.28702,39.81633 -104.39439,82.29119 -102.87241,83.82404 2.08812,2.10302 61.21867,-37.16343 119.05496,-74.41269 58.09704,-37.4172 114.97596,-72.88519 115.16504,-72.69485 -0.30766,-0.30972 -56.09028,35.62746 -112.15704,74.34193 -55.8463,38.56225 -111.92124,79.84945 -110.48437,81.29886 1.94466,1.96163 61.11574,-37.21458 119.75554,-73.62197 58.92301,-36.58323 117.28249,-70.3697 120.33728,-67.28963 -2.00936,-2.02599 -55.47626,35.45687 -108.39438,76.24732 -52.73576,40.6499 -104.77625,84.4563 -101.96089,87.30685 3.93482,3.98401 64.55825,-33.67567 124.11903,-68.9298 59.86768,-35.43579 118.70671,-68.49447 121.95565,-65.20639 -1.00984,-1.02201 -17.46971,7.60093 -41.58596,21.59708 -24.72669,14.35042 -55.3545,33.08556 -87.70692,53.75574 -32.43855,20.72522 -62.71673,40.90244 -87.05707,57.6271 -23.65881,16.25636 -39.24249,27.56014 -38.84769,27.95256 1.1658,1.15876 60.72591,-38.37732 119.52931,-75.29905 59.07985,-37.0953 117.40155,-71.57499 118.82163,-70.16413 -1.04566,-1.03888 -57.15065,35.46459 -113.06088,75.25099 -55.69644,39.63426 -111.07344,82.43113 -108.37836,85.11261 3.73868,3.71981 64.95328,-34.23853 125.05881,-69.50886 60.39944,-35.4428 119.78818,-68.26352 122.72558,-64.33727 -1.90748,-2.54962 -54.85433,33.94207 -107.74608,73.26052 -52.71032,39.18357 -105.32713,81.14487 -104.61691,81.85678 0.92551,0.92771 55.2828,-34.05251 105.74646,-64.19935 50.52788,-30.18521 97.82365,-56.01902 86.03509,-44.24288 7.88945,-7.88115 -39.20098,21.99666 -87.25806,55.56079 -48.18132,33.65091 -98.22515,71.64224 -95.89484,73.96263 3.32674,3.31258 25.97344,-8.78029 47.59997,-21.29468 21.61833,-12.50965 42.41164,-25.56493 42.16532,-25.31797 0.86242,-0.86464 -17.50739,12.22446 -35.90981,25.69023 -18.44055,13.49367 -37.10027,27.50166 -36.87521,27.72699 0.41114,0.41163 18.97157,-11.33147 36.10194,-21.68794 17.146,-10.36593 32.91967,-19.39279 27.96161,-14.43673 3.66637,-3.66488 -7.28965,6.37196 -19.11357,17.49577 -11.81593,11.1163 -24.50921,23.3333 -24.22223,23.62307 0.5176,0.52263 10.11781,-5.23633 19.67773,-11.16882 9.55235,-5.9278 19.11079,-12.0582 19.54183,-12.48706 0.45682,-0.45451 -13.2198,5.9637 -26.97776,12.60514 -13.76856,6.64656 -27.68085,13.55763 -27.68085,13.55763 0,0 13.91277,-6.83692 27.78572,-13.51233 13.86054,-6.66943 27.74823,-13.2198 27.70427,-13.17607 1.22372,-1.21722 -8.50642,4.71116 -18.56716,10.95811 -10.06381,6.24886 -20.49614,12.84164 -20.65058,12.68563 -0.19619,-0.19819 12.29132,-12.20409 23.98212,-23.23827 11.68718,-11.03075 22.62069,-21.13471 19.35179,-17.86792 6.58193,-6.57766 -9.34826,2.23144 -27.00293,12.9135 -17.62703,10.66534 -37.00986,23.23906 -37.05763,23.19121 -0.13428,-0.13449 18.32165,-13.92944 36.63829,-27.33983 18.27583,-13.38052 36.60505,-26.51806 36.14342,-26.05535 1.85158,-1.85589 -19.10355,10.97987 -41.2212,23.79833 -22.11646,12.81777 -45.57662,25.73812 -48.53986,22.78616 -2.23926,-2.23074 47.60998,-40.00523 95.67281,-73.57127 47.93128,-33.47419 94.98947,-63.40442 87.47173,-55.89644 13.27545,-13.2582 -34.14124,12.29927 -85.15801,42.76443 -50.92451,30.41006 -106.05104,66.18321 -106.61458,65.61808 -0.62113,-0.62289 52.03416,-42.5169 104.73822,-81.67917 52.88563,-39.29718 105.78664,-75.81871 107.61512,-73.37379 -3.2533,-4.35009 -62.81045,28.27014 -123.22209,63.71686 -60.11834,35.27462 -121.16554,73.42136 -124.55069,70.05179 -2.60658,-2.5946 52.81724,-45.32944 108.51123,-84.94355 55.90783,-39.76621 111.96754,-76.29755 112.91795,-75.35289 -1.80114,-1.79026 -60.28922,32.49166 -119.36573,69.58207 -58.80012,36.91689 -118.15987,76.61717 -118.97416,75.80743 -0.35048,-0.34852 15.26671,-11.61478 38.94734,-27.84097 24.38688,-16.71011 54.62634,-36.83383 87.08856,-57.56326 32.36693,-20.66857 62.95149,-39.38444 87.66986,-53.75978 24.09237,-14.01127 40.51725,-22.66471 41.48009,-21.68984 -3.6271,-3.67244 -62.63094,29.18686 -122.49495,64.61729 -59.55713,35.24882 -119.98176,73.07491 -123.56821,69.44201 -2.72802,-2.76335 49.35846,-46.509 102.092,-87.14004 52.91594,-40.77159 106.33808,-78.28333 108.25379,-76.35091 -3.42931,-3.45924 -61.95276,30.13015 -120.87229,66.70811 -58.63642,36.4022 -117.6106,75.74242 -119.20935,74.129 -1.3503,-1.36269 54.77033,-42.58775 110.61418,-81.12983 56.06431,-38.69424 111.80261,-74.65913 112.01706,-74.44315 -0.56208,-0.56609 -57.60434,34.7052 -115.69825,72.11743 -57.83308,37.24425 -116.76791,76.67416 -118.51092,74.91792 -1.43554,-1.44642 50.71736,-43.86106 103.00221,-83.65877 52.46898,-39.93787 104.98998,-77.17743 106.2523,-75.91486 -2.33749,-2.33796 -60.03889,32.55039 -118.52423,69.91735 -58.21096,37.19165 -117.21103,76.86652 -119.47967,74.5964 -1.804004,-1.80517 50.40063,-43.61703 102.57976,-82.94592 52.35992,-39.46516 104.63154,-76.38409 104.91775,-76.10032 -0.70229,-0.69631 -57.50438,35.56241 -115.3352,73.9442 -57.57428,38.21154 -116.22486,78.58956 -118.064216,76.76503 -0.708844,-0.70313 14.41801,-12.4056 37.543936,-29.13415 23.7188,-17.15741 53.56694,-37.95782 85.29948,-59.23071 31.79813,-21.31686 61.6727,-40.55262 85.88599,-55.55823 23.53951,-14.58804 39.47289,-23.77012 40.06228,-23.17553 -2.35674,-2.37754 -59.6217,32.60396 -117.95972,69.69863 -58.06116,36.91863 -117.244257,75.99366 -120.77859,72.42654 -2.69633,-2.72134 52.38348,-46.68261 107.7452,-87.56074 55.56545,-41.02856 111.29918,-78.86067 112.12216,-78.02846 -1.57629,-1.59396 -53.01137,30.76937 -101.17601,61.95633 -48.03263,31.10148 -92.38613,60.65937 -78.16437,46.52816 11.06809,-10.99761 45.87104,-43.11898 80.32528,-73.22154 33.8475,-29.57245 65.37063,-55.42387 67.19894,-53.58849 -3.28161,-3.29429 -18.4271,4.04829 -31.53238,11.07449 -13.07696,7.01101 -24.09755,13.68126 -18.92015,8.51607 8.11317,-8.09404 33.01633,-29.75214 33.01633,-29.75214 z"
       style="fill:none;fill-rule:evenodd;stroke:#999999;stroke-width:4;stroke-linecap:butt;stroke-linejoin:miter;stroke-miterlimit:4;stroke-dasharray:none;stroke-dashoffset:0;stroke-opacity:1"
       inkscape:path-effect="#path-effect4175"
       inkscape:original-d="m 251.33824,609.02392 192,192 -192,192 -192.000003,-192 z" />
  </g>
</svg>
